<?xml version="1.0" encoding="utf-8"?>
<!-- Generator: Adobe Illustrator 24.1.1, SVG Export Plug-In . SVG Version: 6.00 Build 0)  -->
<svg version="1.1" id="圖層_1" xmlns="http://www.w3.org/2000/svg" xmlns:xlink="http://www.w3.org/1999/xlink" x="0px" y="0px"
	 viewBox="0 0 255.1 207.6" style="enable-background:new 0 0 255.1 207.6;" xml:space="preserve">
<style type="text/css">
	.st0{fill:#FFFFFF;}
</style>
<path class="st0" d="M127.5,207.5H3.1c-2.7,0-3.1-0.7-3.1-3.2c0.1-67,0.1-134.1,0-201.2C0,0.4,0.7,0,3.2,0H252
	c2.7,0,3.1,0.7,3.1,3.2c-0.1,67.1-0.1,134.2,0,201.3c0,2.7-0.7,3.1-3.2,3.1L127.5,207.5z"/>
<path d="M127.8,75.1c10.9,2.6,21.1,0.7,31.2-0.4s11.8,4.3,9.8,12.3c-0.3,1.2-1.3,1.4-2.2,1.9c-8.6,4.4-17.1,9.3-25.9,13.2
	c-6.1,2.7-9,7.7-11.1,13.2s-2.9,10.3-4.4,15.5c-0.6,2.2,1,3.3,2.2,2.6c5.9-3.7,12.7-1.3,18.8-3.7c6.1-2.4,12.2-4.8,19-5.6
	c4.6-0.5,8.5,0.5,12.5,1.8s3.3,3.3,3.1,5.4s-2.4,2.2-4.5,2.3c-2.5,0.2-5,0.5-7.4,0.9c-3.9,0.5-3.8,4.2-3,6.8
	c1.6,5.9-1,11.1-2.1,16.6c-0.7,3.2-2.5,6.5-2.3,9.6s0.9,8.2,4.1,11.4s5.4,5.9,5.5,10.2c0,2.2-0.5,4.1-3,4.2s-4.8,2.7-6.6-0.9
	c-0.7-1.6-2.2-2.8-3.3-4.1c-2.4,2.3-1.7,4.3-0.8,6.2s0.6,4.6-1.5,6.6s-2.1,1.1-3.3-0.2c-4.8-4.7-5.4-10.7-4.1-16.7
	s1.8-14.7,3.6-21.8c0.4-1.7-0.3-1.7-1.3-2.3c-3.4-2-7.1-1.6-10.6-1.3c-6.7,0.7-13.3,2.4-19.6,4.9c-4.2,1.5-8.6,2.4-13.1,2.6
	c-1.1,0.1-2.3,0.1-2.8,1.4s0.4,1.8,1.2,2.5c2.2,2.2,3.8,4.9,4.7,7.9c0.7,2,0.2,4.5-1.1,5.5s-4.1,0.4-5.6-1.6s-3.1-3.3-4.9-5.3
	c-2,5.4-0.9,10.4-1.2,15.3c-0.1,1.5,0,3-0.8,4.4c-1.2,1.8-3.1,3-5.2,3.3c-1.8,0.1-1.9-2.7-2.2-4.1c-1.4-7-1.6-14.2-0.3-21.3
	c0.2-1.9,0.4-3.7,0.4-5.6c0.6-7.1,5.6-11.9,9.6-17.1s7.4-8.8,11.3-13.1s4.7-14.6,1.4-18.8c-2.5-3.5-6-6.3-10.1-7.9
	c-1.4-0.5-2.2,0.2-3.1,0.5c-5.6,1.6-11.3,2.8-16.3,6.3s-4,8-4.4,12.4c-0.3,2.6-0.4,4.5-3.7,4.1s-4.8-2.9-4-5.3
	c1.9-5.4-0.7-10.6-0.3-16c0.1-1.5-0.7-3.3,0.2-4.9c2.3-3.9,1.1-8,0.7-11.9c-1.2-10.5,5.5-16.5,15.5-16.8c3.7-0.2,7.3,0.1,10.9-0.7
	s4.5-2.5,2.9-5.8s-4.4-6.8-6.7-10.2s-6.4-5.7-10.5-6.6c-6.4-1.2-9.7-5.8-12.5-10.6c-5.1-8.9-8.3-18.4-8-28.9c0.1-2,0.3-3.9,2.3-4.2
	c2-0.3,3.6,1.2,4.4,3.1c2,5.3,3.4,10.8,4,16.4c0.7,4.6,3.2,7.7,6.3,10.7c1.2,1.1,1.8,0.6,2.1-0.5s1.7-4.3,1-7
	c-1.3-5.2-1.4-10.7-0.3-16c0.5-3.5,0.5-7.1,0-10.6c-0.3-2.9,2-2.3,3.3-3.1s2.1-0.1,3,1.1c1.8,2.7,2.6,6,2.2,9.2
	c-0.2,3,1.1,5.9,3.3,7.8c4.2-5.2,2.7-11.9,5.1-17.5c0.5-1.3,0.8-3.3,1.9-3.4s2.2,1.3,3.1,2.7c4.1,6,4.2,12,0.8,18.4
	c-1.7,3.2-3.3,6.5-6,9.2s-3.6,7-3.3,11.5c0.6,9.3,6,15.5,12.3,21.3s10.2,4.8,14.7,0.4s10.4-9.6,14.7-15.3c1.3-1.6,2-3.4,3.1-5
	s0.9-3.4-0.8-5c-3.6-3.5-6.7-7.3-9.3-11.6c-2.8-4.3-2.8-9.2-2.1-14.1c0.2-1.2,1.4-1.4,2.3-1.7s0.8,0.9,1.2,1.3
	c3.5,3.9,4.7,9.2,7.8,13.4c0.8,1.2,1.8,2.3,3,3.3c2.1,1.7,4.3,0.7,4.8-1.9c1-5.7,0.4-11.5,1.5-17.2c0.3-2.4,1.5-4.6,3.4-6.1
	c2,3.5,2.5,7.2,2.7,11s-0.7,7,0.7,10.4s4,4.2,6.9,1.9c4.9-3.9,6.6-8.9,6.1-14.9c-0.1-1.4-0.1-2.8,0-4.2c0.1-1.5,1.3-2.8,2.9-2.7
	c0,0,0.1,0,0.1,0c1.5,0,3.1-0.5,3.6,1.7c1.6,7.1,2.5,14.2-0.9,21.2c-1,2.1-2.6,3.8-4.7,4.8c-6.2,3.4-12.4,7-18.4,10.7
	c-3.9,2.4-5.9,6.5-8.6,10C138.1,63,133.6,69.3,127.8,75.1z"/>
<path class="st0" d="M86.5,107.6c-7,0-8.9-2.4-7.8-7.6c1.9-9.1,4.8-11.6,14.3-11.3c3.5,0.1,6.6-2.5,10.4-1c2.2,0.9,3.6,1.9,3.6,4.3
	c0,4.4-1.3,7.9-5.6,10.1S90.6,107.2,86.5,107.6z"/>
<path class="st0" d="M122.3,153.4c-1.3-0.1-3,0.4-3.8-1.1s-1.6-2.6,1-3.6c10-3.8,20-7.9,29.8-12.2c3.3-1.5,5.5,0.2,7.7,1.8
	s2.3,3.9,1.1,6.3s-3.5,2.7-5.3,3.3C142.8,151,132.6,152.3,122.3,153.4z"/>
<path class="st0" d="M113.9,98.5c-0.8-4.9,1-8.4,5.1-11s4.5-0.6,6.2,1.5s2.7,6.9,1.4,10.7s-1.9,5.8-2.9,8.7s-4.5,4-6.7,1.2
	S113.1,102.6,113.9,98.5z"/>
<path class="st0" d="M133.7,92.1c0-5.5,3.7-8.4,9.1-7.4c2.3,0.4,5.1-0.4,6,2.4s-2,4.6-3.7,6.4c-1.7,1.7-3.8,2.8-6.1,3.3
	C134.7,98.2,133.7,97.1,133.7,92.1z"/>
</svg>
