<svg id="圖層_1" data-name="圖層 1" xmlns="http://www.w3.org/2000/svg" viewBox="0 0 266.8 356"><path d="M188.3,77.4c5.3-7,10.2-3.2,15.1-.2,3.3,1.9,3.1,4.3.7,7.3s-4.7,5.9-4.9,9c-.7,8.9-4.1,16.6-8.2,24.2a37.1,37.1,0,0,0-2.6,5.3c-3.5,11.4-12.9,15-23,18s-18,5.4-26.9,8.3c-1.1.4-2.7,2.5-2.4,3.5,2.2,9.6,3.9,19.5,7.3,28.7s2,17.5-6.3,23.5-19.9,9.5-29.9,14c-6.7,3.1-13.3,6.3-18.4,11.7l.3,1.4c4.5.3,9,.8,13.5.9l36-.2a8.5,8.5,0,0,0,4.3-.9c7.1-4.8,15.3-3.2,23-4.3s17.8-2.7,26.7-3.5c12-1.1,23.8.7,35.5,3.3a72,72,0,0,0,20.7,1.3c3.8-.2,7.4-3.1,11.1-4.7a46,46,0,0,1,5-1.3c4.8,8.8.2,15.8-8.2,18.4-10.2,3.2-17.3,9.1-18,20.6a26.4,26.4,0,0,0,.9,8.4c1.7,7.6,4.1,15,5.5,22.6a229.5,229.5,0,0,1,3.7,27.3c.6,8.1-2.9,15.3-7.4,21.9-1,1.5-3,2.3-4.7,3.5a29.9,29.9,0,0,1-7.5-15.2c-3.1-16.7-6-33.6-15.8-48.1a5.7,5.7,0,0,0-3.9-2c-10.3-.5-20.6-.6-30.9-1.1s-20.1-1.6-30.1-1.9c-12.4-.3-24.8-.6-37.1.3s-23.7,2.9-35.5,4.7a4.6,4.6,0,0,0-2.9,3,112.7,112.7,0,0,1-12.2,41.8c-4.3,8.2-9.3,16-14.3,23.8-3.2,5-9.8,6.5-17.5,4.3,1.5-3.7,2.7-7.6,4.5-11,5.5-10.5,7.9-21.8,9.3-33.3,1.9-15.3,3.1-30.7,4.9-46,1.2-11.1,2.6-22.3,4.3-33.3.8-4.7,3.3-8,9.1-8.8,3.1-.4,5.8-4,8.8-6.1s4.1-3.9,6.5-4.3c13.5-2.8,25.5-9,37.4-15.3,8.3-4.3,10.4-12.4,6.3-22.2a59.3,59.3,0,0,0-4.6-8.6c-3.5-5.6-8.1-5.8-14-3.2C86.3,169.8,71,176.3,55.7,183c-10.4,4.6-20.8,9.3-31.1,14.1-5.3,2.5-10.2,5.8-15.6,7.8s-9.2-.8-9-6.8.6-10.9,2.1-16c2.7-9.3,5.9-18.5,12.3-26.4s16.8-16.5,27.1-22.5c8.5-5,17.4-9.3,26-14.2a45.6,45.6,0,0,0,8.5-6.7c5.2-4.9,5.5-9.3.2-14.4s-9.1-8.6-14.4-11.8c-11.5-6.9-16.4-17.3-15.7-30,.6-11.1-4.2-18.3-12.9-24.2C27.3,28,22.5,23,22,15.5c-.5-5.9,4.1-9.5,9.6-7S42.2,14.8,47.4,18l.8.7c6.5,5.2,6.3,5.1,10.6-2.1a45.9,45.9,0,0,1,7-8.8A4.8,4.8,0,0,1,70.4,7c1.2.6,2.6,2.8,2.4,4.1-1.7,8.7-3.6,17.5-5.6,26.2s-4.5,15-2.3,23C66.5,66.1,73,71.9,78.4,72s10.2-2.9,10.3-9.7c.2-10,6.7-15.9,12.6-22.4a20.5,20.5,0,0,1,4.9-3.9c1.2-.7,3.4-1.2,4.1-.6a5.6,5.6,0,0,1,1.3,4.3c-2.4,7.7-4.8,15.3-7.7,22.8S97.1,78.7,93.3,87.7c2.6.5,4.8,1.3,6.9,1.2,9.7-.3,19.2.7,28.5,4.1,4.5,1.7,9.9,1.1,14.8,1s5-3.4,4.3-6.8c-2.3-11.1-4.9-22.2-7.4-33.3-1.4-6-.2-7.5,5.8-7,11.6,1,16.3,8.1,15.1,19.9-.7,6.3,1.2,12.8,2,19.2l2.4.5c1.7-3.5,4.1-6.7,4.9-10.3a75.5,75.5,0,0,0,2.2-17c.1-19.5,6.7-36.8,16.7-53,2-3.2,5.3-7.9,9.7-5.6,1.7.9,1.5,6.9,1.1,10.4-.6,5.3-2.3,10.4-3.3,15.7-.2,1.1.3,2.4.4,3.5,9.7.1,17.7-7.4,28.4-5.3-5.8,7.7-13.2,11-20,15.1s-14.5,9.3-16.1,18.7c-1.1,5.9-1.8,11.9-2.6,17.8ZM127.5,262.1l17.6.9c5,.1,10-.1,15,.1,8,.5,16,1.4,24.1,1.8s18.9.7,28.4.9a4.2,4.2,0,0,0,3.2-1.6c3.2-5.4,6.6-10.9,9-16.7,1-2.3.4-7.6-.8-8.1-8-3.1-16.5-5.7-25.1-4.2-17.6,3.2-35,7.5-53.1,7.9s-36.1,1.1-54.1,2A55.3,55.3,0,0,0,76.6,248c-2,.7-4.1,4-4.3,6.3s2.2,4.2,4,5.3,5.3,1.7,8,2c7.3.9,14.6,2.1,22,2.2S121.3,262.6,127.5,262.1ZM21.3,184.9c23.3-6.5,44-18.7,66.6-28.1a40.5,40.5,0,0,0-3.2-3.4c-5.2-4-11.5-7-13.4-14.3-.3-1-3.3-2.3-4.6-1.9-12,3.8-22.3,10.4-32.3,19.4,3.6,1,6.3,1.7,9,2.7.9.3,2.2,1.2,2.3,2s-.9,2-1.7,2.6c-4,2.8-8.4,5.1-12.2,8.2S23.2,179,21.3,184.9Zm101.6-57.3c-2.4-5.8-4.7-12.5-7.8-18.8-2-3.9-5.3-4.6-9.4-1.9a43.7,43.7,0,0,0-16,18.8c-1.4,2.9-1.4,5.7,1.4,7.9s7.4,6.5,11.5,9.2c7.7,4.9,11.7,4.3,17-3.2C121.5,136.7,121.6,132.5,122.9,127.6ZM169.6,100a15.3,15.3,0,0,0-3.1,1c-7.2,3.4-14.4,6.9-21.5,10.5-1.4.7-3.2,1.7-3.7,3-2.8,6.7-2.3,13.6.2,20.3.4,1.1,3.2,1.7,5,1.8s3-1,4.5-1.7c12.1-5.7,22.1-13.3,25.1-27.3C177.1,102.9,174.9,99.9,169.6,100Z"/><path d="M127.5,262.1c-6.2.5-13.7,1.7-21.2,1.7s-14.7-1.3-22-2.2c-2.7-.3-5.7-.7-8-2s-4.2-3.7-4-5.3,2.3-5.6,4.3-6.3a55.3,55.3,0,0,1,15.1-2.9c18-.9,36-1.5,54.1-2s35.5-4.7,53.1-7.9c8.6-1.5,17.1,1.1,25.1,4.2,1.2.5,1.8,5.8.8,8.1-2.4,5.8-5.8,11.3-9,16.7a4.2,4.2,0,0,1-3.2,1.6c-9.5-.2-19-.4-28.4-.9s-16.1-1.3-24.1-1.8c-5-.2-10,0-15-.1Z" fill="#fff"/><path d="M21.3,184.9c1.9-5.9,6.3-9.4,10.5-12.8s8.2-5.4,12.2-8.2c.8-.6,1.8-1.8,1.7-2.6s-1.4-1.7-2.3-2c-2.7-1-5.4-1.7-9-2.7,10-9,20.3-15.6,32.3-19.4,1.3-.4,4.3.9,4.6,1.9,1.9,7.3,8.2,10.3,13.4,14.3a40.5,40.5,0,0,1,3.2,3.4C65.3,166.2,44.6,178.4,21.3,184.9Z" fill="#fff"/><path d="M122.9,127.6c-1.3,4.9-1.4,9.1-3.3,12-5.3,7.5-9.3,8.1-17,3.2-4.1-2.7-7.7-6.1-11.5-9.2s-2.8-5-1.4-7.9a43.7,43.7,0,0,1,16-18.8c4.1-2.7,7.4-2,9.4,1.9C118.2,115.1,120.5,121.8,122.9,127.6Z" fill="#fff"/><path d="M169.6,100c5.3-.1,7.5,2.9,6.5,7.6-3,14-13,21.6-25.1,27.3-1.5.7-3,1.7-4.5,1.7s-4.6-.7-5-1.8c-2.5-6.7-3-13.6-.2-20.3.5-1.3,2.3-2.3,3.7-3,7.1-3.6,14.3-7.1,21.5-10.5A15.3,15.3,0,0,1,169.6,100Z" fill="#fff"/></svg>