<?xml version="1.0" encoding="utf-8"?>
<!-- Generator: Adobe Illustrator 24.1.1, SVG Export Plug-In . SVG Version: 6.00 Build 0)  -->
<svg version="1.1" xmlns="http://www.w3.org/2000/svg" xmlns:xlink="http://www.w3.org/1999/xlink" x="0px" y="0px"
	 viewBox="0 0 87.5 87.5" style="enable-background:new 0 0 87.5 87.5;" xml:space="preserve">
<style type="text/css">
	.st0{fill:#FFFFFF;}
</style>
<g id="圖層_2">
	<rect class="st0" width="87.5" height="87.5"/>
</g>
<g id="圖層_1">
	<path d="M57.3,19c1.3-1.7,2.5-0.8,3.7,0c0.8,0.5,0.8,1.1,0.2,1.8c-0.6,0.7-1.2,1.5-1.2,2.2c-0.2,2.2-1,4.1-2,6
		c-0.2,0.4-0.5,0.9-0.6,1.3c-0.9,2.8-3.2,3.7-5.7,4.4c-2.5,0.7-4.4,1.3-6.6,2c-0.3,0.1-0.7,0.6-0.6,0.9c0.5,2.4,1,4.8,1.8,7.1
		c0.8,2.3,0.5,4.3-1.5,5.8c-2,1.5-4.9,2.3-7.4,3.4c-1.6,0.8-3.3,1.5-4.5,2.9l0.1,0.3c1.1,0.1,2.2,0.2,3.3,0.2l8.9,0
		c0.4,0,0.7-0.1,1.1-0.2c1.7-1.2,3.8-0.8,5.7-1.1c1.9-0.3,4.4-0.7,6.6-0.9c3-0.3,5.9,0.2,8.7,0.8c1.7,0.4,3.4,0.5,5.1,0.3
		c0.9,0,1.8-0.8,2.7-1.2c0.4-0.1,0.8-0.2,1.2-0.3c1.2,2.2,0,3.9-2,4.5c-2.5,0.8-4.3,2.2-4.4,5.1c0,0.7,0,1.4,0.2,2.1
		c0.4,1.9,1,3.7,1.4,5.6c0.4,2.2,0.7,4.5,0.9,6.7c0.1,2-0.7,3.8-1.8,5.4c-0.2,0.4-0.7,0.6-1.2,0.9c-1-1-1.6-2.3-1.8-3.7
		c-0.8-4.1-1.5-8.3-3.9-11.8c-0.2-0.3-0.6-0.5-1-0.5c-2.5-0.1-5.1-0.1-7.6-0.3c-2.5-0.1-4.9-0.4-7.4-0.5c-3-0.1-6.1-0.1-9.1,0.1
		s-5.8,0.7-8.7,1.2c-0.3,0.1-0.6,0.4-0.7,0.7c-0.3,3.6-1.3,7.1-3,10.3c-1.1,2-2.3,3.9-3.5,5.9c-0.8,1.2-2.4,1.6-4.3,1.1
		c0.4-0.9,0.7-1.9,1.1-2.7c1.4-2.6,1.9-5.4,2.3-8.2c0.5-3.8,0.8-7.5,1.2-11.3c0.3-2.7,0.6-5.5,1.1-8.2c0.2-1.2,0.8-2,2.2-2.2
		c0.8-0.1,1.4-1,2.2-1.5s1-1,1.6-1.1c3.3-0.7,6.3-2.2,9.2-3.8c2-1.1,2.6-3,1.5-5.5c-0.3-0.7-0.7-1.4-1.1-2.1c-0.9-1.4-2-1.4-3.4-0.8
		c-3.7,1.7-7.5,3.3-11.3,4.9c-2.6,1.1-5.1,2.3-7.6,3.5c-1.3,0.6-2.5,1.4-3.8,1.9c-1.3,0.5-2.3-0.2-2.2-1.7s0.1-2.7,0.5-3.9
		c0.7-2.3,1.5-4.5,3-6.5c1.6-1.9,4.1-4.1,6.7-5.5c2.1-1.2,4.3-2.3,6.4-3.5c0.8-0.5,1.5-1,2.1-1.6c1.3-1.2,1.4-2.3,0-3.5
		s-2.2-2.1-3.5-2.9c-2.8-1.7-4-4.3-3.9-7.4c0.1-2.7-1-4.5-3.2-6c-1.5-1-2.6-2.2-2.8-4c-0.1-1.5,1-2.3,2.4-1.7
		c1.4,0.6,2.6,1.5,3.9,2.3l0.2,0.2c1.6,1.3,1.5,1.3,2.6-0.5c0.5-0.8,1.1-1.5,1.7-2.2c0.3-0.3,0.7-0.3,1.1-0.2c0.3,0.1,0.6,0.7,0.6,1
		C28.4,4.9,28,7,27.5,9.2c-0.5,2.1-1.1,3.7-0.6,5.7c0.4,1.4,2,2.9,3.3,2.9c1.3,0,2.5-0.7,2.5-2.4c0-2.5,1.6-3.9,3.1-5.5
		c0.4-0.4,0.8-0.7,1.2-1c0.3-0.2,0.8-0.3,1-0.1c0.2,0.3,0.4,0.7,0.3,1.1c-0.6,1.9-1.2,3.8-1.9,5.6c-0.7,1.8-1.7,4-2.6,6.2
		c0.6,0.1,1.2,0.3,1.7,0.3c2.4-0.1,4.7,0.2,7,1c1.1,0.4,2.4,0.3,3.6,0.2s1.2-0.8,1.1-1.7c-0.6-2.7-1.2-5.5-1.8-8.2
		c-0.3-1.5,0-1.8,1.4-1.7c2.9,0.2,4,2,3.7,4.9c-0.2,1.5,0.3,3.1,0.5,4.7l0.6,0.1c0.4-0.9,1-1.6,1.2-2.5c0.3-1.4,0.5-2.8,0.5-4.2
		c0-4.8,1.6-9,4.1-13c0.5-0.8,1.3-1.9,2.4-1.4c0.4,0.2,0.4,1.7,0.3,2.6c-0.1,1.3-0.6,2.6-0.8,3.9c0,0.3,0.1,0.6,0.1,0.9
		c2.4,0,4.4-1.8,7-1.3c-1.4,1.9-3.2,2.7-4.9,3.7s-3.6,2.3-4,4.6c-0.3,1.5-0.4,2.9-0.6,4.4L57.3,19z M42.3,64.5l4.3,0.2
		c1.2,0,2.5,0,3.7,0c2,0.1,3.9,0.3,5.9,0.4c2,0.1,4.6,0.2,7,0.2c0.3,0,0.6-0.2,0.8-0.4c0.8-1.3,1.6-2.7,2.2-4.1
		c0.2-0.6,0.1-1.9-0.2-2c-2-0.8-4.1-1.4-6.2-1c-4.3,0.8-8.6,1.8-13.1,1.9s-8.9,0.3-13.3,0.5c-1.3,0.1-2.5,0.3-3.7,0.7
		c-0.5,0.2-1,1-1.1,1.5s0.5,1,1,1.3c0.4,0.3,1.3,0.4,2,0.5c1.8,0.2,3.6,0.5,5.4,0.5C38.9,64.9,40.8,64.6,42.3,64.5z M16.2,45.5
		c5.7-1.6,10.8-4.6,16.4-6.9c-0.2-0.3-0.5-0.6-0.8-0.8c-1.3-1-2.8-1.7-3.3-3.5c-0.1-0.2-0.8-0.6-1.1-0.5c-3,0.9-5.5,2.6-7.9,4.8
		c0.9,0.2,1.5,0.4,2.2,0.7c0.2,0.1,0.5,0.3,0.6,0.5c0,0.2-0.2,0.5-0.4,0.6c-1,0.7-2.1,1.3-3,2C17.8,43.1,16.7,44,16.2,45.5z
		 M41.2,31.4c-0.6-1.4-1.2-3.1-1.9-4.6c-0.5-1-1.3-1.1-2.3-0.5c-1.7,1.1-3.1,2.7-3.9,4.6c-0.3,0.7-0.3,1.4,0.3,1.9s1.8,1.6,2.8,2.3
		c1.9,1.2,2.9,1.1,4.2-0.8C40.8,33.6,40.9,32.6,41.2,31.4z M52.7,24.6c-0.3,0.1-0.5,0.1-0.8,0.2c-1.8,0.8-3.5,1.7-5.3,2.6
		c-0.3,0.2-0.8,0.4-0.9,0.7c-0.7,1.6-0.6,3.3,0,5c0.1,0.3,0.8,0.4,1.2,0.4s0.7-0.2,1.1-0.4c3-1.4,5.4-3.3,6.2-6.7
		C54.5,25.3,54,24.6,52.7,24.6z"/>
	<path class="st0" d="M42.3,64.5c-1.5,0.1-3.4,0.4-5.2,0.4s-3.6-0.3-5.4-0.5c-0.7-0.1-1.4-0.2-2-0.5s-1-0.9-1-1.3s0.6-1.4,1.1-1.5
		c1.2-0.4,2.4-0.6,3.7-0.7c4.4-0.2,8.9-0.4,13.3-0.5c4.5-0.1,8.7-1.2,13.1-1.9c2.1-0.4,4.2,0.3,6.2,1c0.3,0.1,0.4,1.4,0.2,2
		c-0.6,1.4-1.4,2.8-2.2,4.1c-0.2,0.2-0.5,0.4-0.8,0.4c-2.3,0-4.7-0.1-7-0.2c-2.3-0.1-4-0.3-5.9-0.4c-1.2,0-2.5,0-3.7,0L42.3,64.5z"
		/>
	<path class="st0" d="M16.2,45.5c0.5-1.5,1.5-2.3,2.6-3.1c1-0.8,2-1.3,3-2c0.2-0.1,0.4-0.4,0.4-0.6c0-0.2-0.3-0.4-0.6-0.5
		c-0.7-0.2-1.3-0.4-2.2-0.7c2.5-2.2,5-3.8,7.9-4.8c0.3-0.1,1.1,0.2,1.1,0.5c0.5,1.8,2,2.5,3.3,3.5c0.3,0.3,0.5,0.5,0.8,0.8
		C27,40.9,21.9,43.9,16.2,45.5z"/>
	<path class="st0" d="M41.2,31.4c-0.3,1.2-0.3,2.2-0.8,3c-1.3,1.8-2.3,2-4.2,0.8c-1-0.7-1.9-1.5-2.8-2.3s-0.7-1.2-0.3-1.9
		c0.8-1.9,2.2-3.5,3.9-4.6c1-0.7,1.8-0.5,2.3,0.5C40,28.3,40.6,30,41.2,31.4z"/>
	<path class="st0" d="M52.7,24.6c1.3,0,1.8,0.7,1.6,1.9c-0.7,3.4-3.2,5.3-6.2,6.7c-0.4,0.2-0.7,0.4-1.1,0.4s-1.1-0.2-1.2-0.4
		c-0.6-1.6-0.7-3.3,0-5c0.1-0.3,0.6-0.6,0.9-0.7c1.7-0.9,3.5-1.7,5.3-2.6C52.2,24.7,52.4,24.6,52.7,24.6z"/>
</g>
</svg>
