<svg height="512pt" viewBox="-85 0 511 512" width="512pt" xmlns="http://www.w3.org/2000/svg"><path d="m270.53125 150.753906c-1.191406-.945312-2.371094-1.882812-3.539062-2.8125l34.335937-34.28125c6.480469-6.46875 10.945313-14.609375 12.914063-23.550781 3.136718-14.222656-.300782-28.890625-9.425782-40.246094-9.121094-11.351562-22.707031-17.863281-37.273437-17.863281h-19.003907c.800782-.957031 1.625-1.902344 2.484376-2.820312 4.734374-5.039063 6.019531-12.390626 3.273437-18.734376-2.742187-6.347656-8.984375-10.445312-15.894531-10.445312h-134.097656c-6.910157 0-13.152344 4.097656-15.894532 10.445312-2.746094 6.34375-1.460937 13.699219 3.273438 18.734376.863281.917968 1.683594 1.863281 2.488281 2.820312h-19.007813c-14.5625 0-28.148437 6.511719-37.273437 17.863281-9.125 11.355469-12.558594 26.023438-9.421875 40.246094 1.96875 8.941406 6.433594 17.085937 12.910156 23.550781l34.339844 34.285156c-1.167969.929688-2.351562 1.863282-3.539062 2.808594-31.9375 25.320313-71.679688 56.832032-71.679688 118.246094 0 41.890625 16.988281 94.910156 50.5 157.589844 24.695312 46.195312 49.019531 79.871094 50.039062 81.28125 1.882813 2.59375 4.894532 4.128906 8.097657 4.128906h124.433593c3.207032 0 6.214844-1.535156 8.097657-4.128906 1.023437-1.410156 25.34375-35.085938 50.042969-81.28125 33.507812-62.679688 50.496093-115.699219 50.496093-157.589844 0-61.414062-39.742187-92.925781-71.675781-118.246094zm-250.03125 118.246094c0-1.015625.035156-2.003906.0625-3h23.125v20h-22.195312c-.640626-5.785156-.992188-11.464844-.992188-17zm4.261719 37h28.925781c5.523438 0 10-4.476562 10-10v-40c0-5.523438-4.476562-10-10-10h-30.722656c1.605468-7.199219 3.957031-13.828125 6.871094-20h53.851562v70c0 5.523438 4.476562 10 10 10h80c5.523438 0 10-4.476562 10-10v-40c0-5.523438-4.476562-10-10-10h-30v-20h60v70c0 5.523438 4.476562 10 10 10h80c5.523438 0 10-4.476562 10-10v-40c0-5.523438-4.476562-10-10-10h-30v-20h49.183594c5.792968 12.25 9.335937 26.335938 9.335937 43 0 17.898438-3.582031 37.3125-9.363281 57h-282.988281c-1.96875-6.714844-3.6875-13.398438-5.09375-20zm36.304687-120h220.574219c6.726563 6.125 13.140625 12.710938 18.8125 20h-46.765625c-5.523438 0-10 4.476562-10 10v40c0 5.523438 4.476562 10 10 10h30v20h-60v-70c0-5.523438-4.476562-10-10-10h-80c-5.523438 0-10 4.476562-10 10v40c0 5.523438 4.476562 10 10 10h30v20h-60v-70c0-5.523438-4.476562-10-10-10h-51.433594c5.671875-7.289062 12.085938-13.875 18.8125-20zm206.476563-134c8.472656 0 16.378906 3.789062 21.683593 10.394531 5.308594 6.601563 7.308594 15.136719 5.484376 23.410157-1.148438 5.203124-3.746094 9.9375-7.511719 13.703124l-35.632813 35.574219c-10.753906-9.75-18.191406-19.203125-18.191406-29.582031v-31.765625c0-7.5 1.285156-14.828125 3.730469-21.734375zm-35.050781-32c-12.371094 15.15625-19.117188 34.015625-19.117188 53.734375v31.765625c0 25.261719 21.390625 42.417969 44.195312 60.5h-172.429687c22.800781-18.082031 44.191406-35.238281 44.191406-60.5v-31.765625c0-19.71875-6.746093-38.582031-19.117187-53.734375zm-176.984376 79.507812c-3.765624-3.765624-6.363281-8.5-7.511718-13.703124-1.820313-8.273438.175781-16.808594 5.484375-23.410157 5.308593-6.605469 13.210937-10.394531 21.683593-10.394531h30.4375c2.445313 6.90625 3.730469 14.234375 3.730469 21.734375v31.765625c0 10.378906-7.433593 19.832031-18.191406 29.582031zm172.875 392.492188h-114.058593c-11.503907-16.574219-54.296875-80.445312-77.914063-146h269.875c-3.394531 9.414062-7.175781 18.789062-11.210937 28h-108.71875c-5.523438 0-10 4.476562-10 10s4.476562 10 10 10h99.472656c-22.550781 46.445312-48.808594 85.554688-57.445313 98zm0 0"/><path d="m145.355469 374c-2.632813 0-5.210938 1.070312-7.070313 2.929688-1.859375 1.859374-2.929687 4.441406-2.929687 7.070312s1.070312 5.210938 2.929687 7.070312c1.859375 1.859376 4.4375 2.929688 7.070313 2.929688 2.628906 0 5.207031-1.070312 7.070312-2.929688 1.859375-1.859374 2.929688-4.441406 2.929688-7.070312s-1.070313-5.210938-2.929688-7.070312c-1.863281-1.859376-4.441406-2.929688-7.070312-2.929688zm0 0"/></svg>